<svg width="732px" height="246px" viewBox="0 0 732 246" xmlns="http://www.w3.org/2000/svg" xmlns:xlink="http://www.w3.org/1999/xlink">
    <style type='text/css'>
      .keycap .outer { fill: #1e1e2e; }
      .keycap .inner { fill: #313244; stroke: #45475a; }
      .label { font: 16px monospace; }
      .label.level1 { fill: #cdd6f4; }
      .label.level2 { fill: #94e2d5; }
      .label.level3 { fill: #f38ba8; }
      .label.level4 { fill: #89b4fa; }
      .label.small { font-size: 10px; }
    </style>
    <g transform="translate(10,10)">
      <rect width="712" height="226" stroke="#cdd6f4" stroke-width="1" fill="#11111b" rx="6"/>
      <g transform="translate(5,5)">
        <g class="keycap">
          <rect x="1" y="1" width="52" height="52" rx="5" class="outer"/>
          <rect x="7" y="4" width="40" height="40" rx="5" class="inner"/>
            <text x="9.0" y="38.0" class="label level1">1</text>
            <text x="9.0" y="21.0" class="label level2">!</text>
            <text x="26.0" y="38.0" class="label level3"></text>
            <text x="26.0" y="21.0" class="label level4"></text>
        </g>
        <g class="keycap">
          <rect x="55" y="1" width="52" height="52" rx="5" class="outer"/>
          <rect x="61" y="4" width="40" height="40" rx="5" class="inner"/>
            <text x="63.0" y="38.0" class="label level1">2</text>
            <text x="63.0" y="21.0" class="label level2">@</text>
            <text x="80.0" y="38.0" class="label level3"></text>
            <text x="80.0" y="21.0" class="label level4"></text>
        </g>
        <g class="keycap">
          <rect x="109" y="1" width="52" height="52" rx="5" class="outer"/>
          <rect x="115" y="4" width="40" height="40" rx="5" class="inner"/>
            <text x="117.0" y="38.0" class="label level1">3</text>
            <text x="117.0" y="21.0" class="label level2">#</text>
            <text x="134.0" y="38.0" class="label level3">№</text>
            <text x="134.0" y="21.0" class="label level4"></text>
        </g>
        <g class="keycap">
          <rect x="163" y="1" width="52" height="52" rx="5" class="outer"/>
          <rect x="169" y="4" width="40" height="40" rx="5" class="inner"/>
            <text x="171.0" y="38.0" class="label level1">4</text>
            <text x="171.0" y="21.0" class="label level2">$</text>
            <text x="188.0" y="38.0" class="label level3">€</text>
            <text x="188.0" y="21.0" class="label level4">₽</text>
        </g>
        <g class="keycap">
          <rect x="217" y="1" width="52" height="52" rx="5" class="outer"/>
          <rect x="223" y="4" width="40" height="40" rx="5" class="inner"/>
            <text x="225.0" y="38.0" class="label level1">5</text>
            <text x="225.0" y="21.0" class="label level2">%</text>
            <text x="242.0" y="38.0" class="label level3"></text>
            <text x="242.0" y="21.0" class="label level4"></text>
        </g>
        <g class="keycap">
          <rect x="271" y="1" width="52" height="52" rx="5" class="outer"/>
          <rect x="277" y="4" width="40" height="40" rx="5" class="inner"/>
            <text x="279.0" y="38.0" class="label level1">6</text>
            <text x="279.0" y="21.0" class="label level2">^</text>
            <text x="296.0" y="38.0" class="label level3"></text>
            <text x="296.0" y="21.0" class="label level4"></text>
        </g>
        <g class="keycap">
          <rect x="379" y="1" width="52" height="52" rx="5" class="outer"/>
          <rect x="385" y="4" width="40" height="40" rx="5" class="inner"/>
            <text x="387.0" y="38.0" class="label level1">7</text>
            <text x="387.0" y="21.0" class="label level2">?</text>
            <text x="404.0" y="38.0" class="label level3"></text>
            <text x="404.0" y="21.0" class="label level4"></text>
        </g>
        <g class="keycap">
          <rect x="433" y="1" width="52" height="52" rx="5" class="outer"/>
          <rect x="439" y="4" width="40" height="40" rx="5" class="inner"/>
            <text x="441.0" y="38.0" class="label level1">8</text>
            <text x="441.0" y="21.0" class="label level2">*</text>
            <text x="458.0" y="38.0" class="label level3"></text>
            <text x="458.0" y="21.0" class="label level4"></text>
        </g>
        <g class="keycap">
          <rect x="487" y="1" width="52" height="52" rx="5" class="outer"/>
          <rect x="493" y="4" width="40" height="40" rx="5" class="inner"/>
            <text x="495.0" y="38.0" class="label level1">9</text>
            <text x="495.0" y="21.0" class="label level2">(</text>
            <text x="512.0" y="38.0" class="label level3"></text>
            <text x="512.0" y="21.0" class="label level4"></text>
        </g>
        <g class="keycap">
          <rect x="541" y="1" width="52" height="52" rx="5" class="outer"/>
          <rect x="547" y="4" width="40" height="40" rx="5" class="inner"/>
            <text x="549.0" y="38.0" class="label level1">0</text>
            <text x="549.0" y="21.0" class="label level2">)</text>
            <text x="566.0" y="38.0" class="label level3"></text>
            <text x="566.0" y="21.0" class="label level4"></text>
        </g>
        <g class="keycap">
          <rect x="595" y="1" width="52" height="52" rx="5" class="outer"/>
          <rect x="601" y="4" width="40" height="40" rx="5" class="inner"/>
            <text x="603.0" y="38.0" class="label level1">-</text>
            <text x="603.0" y="21.0" class="label level2">_</text>
            <text x="620.0" y="38.0" class="label level3">—</text>
            <text x="620.0" y="21.0" class="label level4"></text>
        </g>
        <g class="keycap">
          <rect x="649" y="1" width="52" height="52" rx="5" class="outer"/>
          <rect x="655" y="4" width="40" height="40" rx="5" class="inner"/>
            <text x="657.0" y="38.0" class="label level1">=</text>
            <text x="657.0" y="21.0" class="label level2">+</text>
            <text x="674.0" y="38.0" class="label level3">‐</text>
            <text x="674.0" y="21.0" class="label level4"></text>
        </g>
        <g class="keycap">
          <rect x="1" y="55" width="52" height="52" rx="5" class="outer"/>
          <rect x="7" y="58" width="40" height="40" rx="5" class="inner"/>
            <text x="9.0" y="92.0" class="label level1">Q</text>
            <text x="9.0" y="75.0" class="label level2"></text>
            <text x="26.0" y="92.0" class="label level3">Ô</text>
            <text x="26.0" y="75.0" class="label level4"></text>
        </g>
        <g class="keycap">
          <rect x="55" y="55" width="52" height="52" rx="5" class="outer"/>
          <rect x="61" y="58" width="40" height="40" rx="5" class="inner"/>
            <text x="63.0" y="92.0" class="label level1">W</text>
            <text x="63.0" y="75.0" class="label level2"></text>
            <text x="80.0" y="92.0" class="label level3"></text>
            <text x="80.0" y="75.0" class="label level4"></text>
        </g>
        <g class="keycap">
          <rect x="109" y="55" width="52" height="52" rx="5" class="outer"/>
          <rect x="115" y="58" width="40" height="40" rx="5" class="inner"/>
            <text x="117.0" y="92.0" class="label level1">E</text>
            <text x="117.0" y="75.0" class="label level2"></text>
            <text x="134.0" y="92.0" class="label level3">É</text>
            <text x="134.0" y="75.0" class="label level4"></text>
        </g>
        <g class="keycap">
          <rect x="163" y="55" width="52" height="52" rx="5" class="outer"/>
          <rect x="169" y="58" width="40" height="40" rx="5" class="inner"/>
            <text x="171.0" y="92.0" class="label level1">R</text>
            <text x="171.0" y="75.0" class="label level2"></text>
            <text x="188.0" y="92.0" class="label level3">Ŕ</text>
            <text x="188.0" y="75.0" class="label level4"></text>
        </g>
        <g class="keycap">
          <rect x="217" y="55" width="52" height="52" rx="5" class="outer"/>
          <rect x="223" y="58" width="40" height="40" rx="5" class="inner"/>
            <text x="225.0" y="92.0" class="label level1">T</text>
            <text x="225.0" y="75.0" class="label level2"></text>
            <text x="242.0" y="92.0" class="label level3">Ť</text>
            <text x="242.0" y="75.0" class="label level4"></text>
        </g>
        <g class="keycap">
          <rect x="271" y="55" width="52" height="52" rx="5" class="outer"/>
          <rect x="277" y="58" width="40" height="40" rx="5" class="inner"/>
            <text x="279.0" y="92.0" class="label level1">Y</text>
            <text x="279.0" y="75.0" class="label level2"></text>
            <text x="296.0" y="92.0" class="label level3">Ý</text>
            <text x="296.0" y="75.0" class="label level4"></text>
        </g>
        <g class="keycap">
          <rect x="379" y="55" width="52" height="52" rx="5" class="outer"/>
          <rect x="385" y="58" width="40" height="40" rx="5" class="inner"/>
            <text x="387.0" y="92.0" class="label level1">U</text>
            <text x="387.0" y="75.0" class="label level2"></text>
            <text x="404.0" y="92.0" class="label level3">Ú</text>
            <text x="404.0" y="75.0" class="label level4"></text>
        </g>
        <g class="keycap">
          <rect x="433" y="55" width="52" height="52" rx="5" class="outer"/>
          <rect x="439" y="58" width="40" height="40" rx="5" class="inner"/>
            <text x="441.0" y="92.0" class="label level1">I</text>
            <text x="441.0" y="75.0" class="label level2"></text>
            <text x="458.0" y="92.0" class="label level3">Í</text>
            <text x="458.0" y="75.0" class="label level4"></text>
        </g>
        <g class="keycap">
          <rect x="487" y="55" width="52" height="52" rx="5" class="outer"/>
          <rect x="493" y="58" width="40" height="40" rx="5" class="inner"/>
            <text x="495.0" y="92.0" class="label level1">O</text>
            <text x="495.0" y="75.0" class="label level2"></text>
            <text x="512.0" y="92.0" class="label level3">Ó</text>
            <text x="512.0" y="75.0" class="label level4"></text>
        </g>
        <g class="keycap">
          <rect x="541" y="55" width="52" height="52" rx="5" class="outer"/>
          <rect x="547" y="58" width="40" height="40" rx="5" class="inner"/>
            <text x="549.0" y="92.0" class="label level1">P</text>
            <text x="549.0" y="75.0" class="label level2"></text>
            <text x="566.0" y="92.0" class="label level3"></text>
            <text x="566.0" y="75.0" class="label level4"></text>
        </g>
        <g class="keycap">
          <rect x="595" y="55" width="52" height="52" rx="5" class="outer"/>
          <rect x="601" y="58" width="40" height="40" rx="5" class="inner"/>
            <text x="603.0" y="92.0" class="label level1">&lt;</text>
            <text x="603.0" y="75.0" class="label level2">&gt;</text>
            <text x="620.0" y="92.0" class="label level3"></text>
            <text x="620.0" y="75.0" class="label level4"></text>
        </g>
        <g class="keycap">
          <rect x="649" y="55" width="52" height="52" rx="5" class="outer"/>
          <rect x="655" y="58" width="40" height="40" rx="5" class="inner"/>
            <text x="657.0" y="92.0" class="label level1">/</text>
            <text x="657.0" y="75.0" class="label level2">|</text>
            <text x="674.0" y="92.0" class="label level3"></text>
            <text x="674.0" y="75.0" class="label level4"></text>
        </g>
        <g class="keycap">
          <rect x="1" y="109" width="52" height="52" rx="5" class="outer"/>
          <rect x="7" y="112" width="40" height="40" rx="5" class="inner"/>
            <text x="9.0" y="146.0" class="label level1">A</text>
            <text x="9.0" y="129.0" class="label level2"></text>
            <text x="26.0" y="146.0" class="label level3">Á</text>
            <text x="26.0" y="129.0" class="label level4"></text>
        </g>
        <g class="keycap">
          <rect x="55" y="109" width="52" height="52" rx="5" class="outer"/>
          <rect x="61" y="112" width="40" height="40" rx="5" class="inner"/>
            <text x="63.0" y="146.0" class="label level1">S</text>
            <text x="63.0" y="129.0" class="label level2"></text>
            <text x="80.0" y="146.0" class="label level3">Š</text>
            <text x="80.0" y="129.0" class="label level4"></text>
        </g>
        <g class="keycap">
          <rect x="109" y="109" width="52" height="52" rx="5" class="outer"/>
          <rect x="115" y="112" width="40" height="40" rx="5" class="inner"/>
            <text x="117.0" y="146.0" class="label level1">D</text>
            <text x="117.0" y="129.0" class="label level2"></text>
            <text x="134.0" y="146.0" class="label level3">Ď</text>
            <text x="134.0" y="129.0" class="label level4"></text>
        </g>
        <g class="keycap">
          <rect x="163" y="109" width="52" height="52" rx="5" class="outer"/>
          <rect x="169" y="112" width="40" height="40" rx="5" class="inner"/>
            <text x="171.0" y="146.0" class="label level1">F</text>
            <text x="171.0" y="129.0" class="label level2"></text>
            <text x="188.0" y="146.0" class="label level3"></text>
            <text x="188.0" y="129.0" class="label level4"></text>
        </g>
        <g class="keycap">
          <rect x="217" y="109" width="52" height="52" rx="5" class="outer"/>
          <rect x="223" y="112" width="40" height="40" rx="5" class="inner"/>
            <text x="225.0" y="146.0" class="label level1">G</text>
            <text x="225.0" y="129.0" class="label level2"></text>
            <text x="242.0" y="146.0" class="label level3"></text>
            <text x="242.0" y="129.0" class="label level4"></text>
        </g>
        <g class="keycap">
          <rect x="271" y="109" width="52" height="52" rx="5" class="outer"/>
          <rect x="277" y="112" width="40" height="40" rx="5" class="inner"/>
            <text x="279.0" y="146.0" class="label level1">H</text>
            <text x="279.0" y="129.0" class="label level2"></text>
            <text x="296.0" y="146.0" class="label level3"></text>
            <text x="296.0" y="129.0" class="label level4"></text>
        </g>
        <g class="keycap">
          <rect x="379" y="109" width="52" height="52" rx="5" class="outer"/>
          <rect x="385" y="112" width="40" height="40" rx="5" class="inner"/>
            <text x="387.0" y="146.0" class="label level1">J</text>
            <text x="387.0" y="129.0" class="label level2"></text>
            <text x="404.0" y="146.0" class="label level3">Ľ</text>
            <text x="404.0" y="129.0" class="label level4"></text>
        </g>
        <g class="keycap">
          <rect x="433" y="109" width="52" height="52" rx="5" class="outer"/>
          <rect x="439" y="112" width="40" height="40" rx="5" class="inner"/>
            <text x="441.0" y="146.0" class="label level1">K</text>
            <text x="441.0" y="129.0" class="label level2"></text>
            <text x="458.0" y="146.0" class="label level3"></text>
            <text x="458.0" y="129.0" class="label level4"></text>
        </g>
        <g class="keycap">
          <rect x="487" y="109" width="52" height="52" rx="5" class="outer"/>
          <rect x="493" y="112" width="40" height="40" rx="5" class="inner"/>
            <text x="495.0" y="146.0" class="label level1">L</text>
            <text x="495.0" y="129.0" class="label level2"></text>
            <text x="512.0" y="146.0" class="label level3">Ĺ</text>
            <text x="512.0" y="129.0" class="label level4"></text>
        </g>
        <g class="keycap">
          <rect x="541" y="109" width="52" height="52" rx="5" class="outer"/>
          <rect x="547" y="112" width="40" height="40" rx="5" class="inner"/>
            <text x="549.0" y="146.0" class="label level1">[</text>
            <text x="549.0" y="129.0" class="label level2">]</text>
            <text x="566.0" y="146.0" class="label level3"></text>
            <text x="566.0" y="129.0" class="label level4"></text>
        </g>
        <g class="keycap">
          <rect x="595" y="109" width="52" height="52" rx="5" class="outer"/>
          <rect x="601" y="112" width="40" height="40" rx="5" class="inner"/>
            <text x="603.0" y="146.0" class="label level1">{</text>
            <text x="603.0" y="129.0" class="label level2">}</text>
            <text x="620.0" y="146.0" class="label level3"></text>
            <text x="620.0" y="129.0" class="label level4"></text>
        </g>
        <g class="keycap">
          <rect x="649" y="109" width="52" height="52" rx="5" class="outer"/>
          <rect x="655" y="112" width="40" height="40" rx="5" class="inner"/>
            <text x="657.0" y="146.0" class="label level1">"</text>
            <text x="657.0" y="129.0" class="label level2">'</text>
            <text x="674.0" y="146.0" class="label level3">«</text>
            <text x="674.0" y="129.0" class="label level4">»</text>
        </g>
        <g class="keycap">
          <rect x="1" y="163" width="52" height="52" rx="5" class="outer"/>
          <rect x="7" y="166" width="40" height="40" rx="5" class="inner"/>
            <text x="9.0" y="200.0" class="label level1">Z</text>
            <text x="9.0" y="183.0" class="label level2"></text>
            <text x="26.0" y="200.0" class="label level3">Ž</text>
            <text x="26.0" y="183.0" class="label level4"></text>
        </g>
        <g class="keycap">
          <rect x="55" y="163" width="52" height="52" rx="5" class="outer"/>
          <rect x="61" y="166" width="40" height="40" rx="5" class="inner"/>
            <text x="63.0" y="200.0" class="label level1">X</text>
            <text x="63.0" y="183.0" class="label level2"></text>
            <text x="80.0" y="200.0" class="label level3"></text>
            <text x="80.0" y="183.0" class="label level4"></text>
        </g>
        <g class="keycap">
          <rect x="109" y="163" width="52" height="52" rx="5" class="outer"/>
          <rect x="115" y="166" width="40" height="40" rx="5" class="inner"/>
            <text x="117.0" y="200.0" class="label level1">C</text>
            <text x="117.0" y="183.0" class="label level2"></text>
            <text x="134.0" y="200.0" class="label level3">Č</text>
            <text x="134.0" y="183.0" class="label level4"></text>
        </g>
        <g class="keycap">
          <rect x="163" y="163" width="52" height="52" rx="5" class="outer"/>
          <rect x="169" y="166" width="40" height="40" rx="5" class="inner"/>
            <text x="171.0" y="200.0" class="label level1">V</text>
            <text x="171.0" y="183.0" class="label level2"></text>
            <text x="188.0" y="200.0" class="label level3"></text>
            <text x="188.0" y="183.0" class="label level4"></text>
        </g>
        <g class="keycap">
          <rect x="217" y="163" width="52" height="52" rx="5" class="outer"/>
          <rect x="223" y="166" width="40" height="40" rx="5" class="inner"/>
            <text x="225.0" y="200.0" class="label level1">B</text>
            <text x="225.0" y="183.0" class="label level2"></text>
            <text x="242.0" y="200.0" class="label level3"></text>
            <text x="242.0" y="183.0" class="label level4"></text>
        </g>
        <g class="keycap">
          <rect x="271" y="163" width="52" height="52" rx="5" class="outer"/>
          <rect x="277" y="166" width="40" height="40" rx="5" class="inner"/>
            <text x="279.0" y="200.0" class="label level1">N</text>
            <text x="279.0" y="183.0" class="label level2"></text>
            <text x="296.0" y="200.0" class="label level3">Ň</text>
            <text x="296.0" y="183.0" class="label level4"></text>
        </g>
        <g class="keycap">
          <rect x="379" y="163" width="52" height="52" rx="5" class="outer"/>
          <rect x="385" y="166" width="40" height="40" rx="5" class="inner"/>
            <text x="387.0" y="200.0" class="label level1">M</text>
            <text x="387.0" y="183.0" class="label level2"></text>
            <text x="404.0" y="200.0" class="label level3"></text>
            <text x="404.0" y="183.0" class="label level4"></text>
        </g>
        <g class="keycap">
          <rect x="433" y="163" width="52" height="52" rx="5" class="outer"/>
          <rect x="439" y="166" width="40" height="40" rx="5" class="inner"/>
            <text x="441.0" y="200.0" class="label level1">&amp;</text>
            <text x="441.0" y="183.0" class="label level2">\</text>
            <text x="458.0" y="200.0" class="label level3"></text>
            <text x="458.0" y="183.0" class="label level4"></text>
        </g>
        <g class="keycap">
          <rect x="487" y="163" width="52" height="52" rx="5" class="outer"/>
          <rect x="493" y="166" width="40" height="40" rx="5" class="inner"/>
            <text x="495.0" y="200.0" class="label level1">~</text>
            <text x="495.0" y="183.0" class="label level2">`</text>
            <text x="512.0" y="200.0" class="label level3">°</text>
            <text x="512.0" y="183.0" class="label level4"></text>
        </g>
        <g class="keycap">
          <rect x="541" y="163" width="52" height="52" rx="5" class="outer"/>
          <rect x="547" y="166" width="40" height="40" rx="5" class="inner"/>
            <text x="549.0" y="200.0" class="label level1">.</text>
            <text x="549.0" y="183.0" class="label level2">:</text>
            <text x="566.0" y="200.0" class="label level3"></text>
            <text x="566.0" y="183.0" class="label level4"></text>
        </g>
        <g class="keycap">
          <rect x="595" y="163" width="52" height="52" rx="5" class="outer"/>
          <rect x="601" y="166" width="40" height="40" rx="5" class="inner"/>
            <text x="603.0" y="200.0" class="label level1">,</text>
            <text x="603.0" y="183.0" class="label level2">;</text>
            <text x="620.0" y="200.0" class="label level3"></text>
            <text x="620.0" y="183.0" class="label level4"></text>
        </g>
        <g class="keycap">
          <rect x="649" y="163" width="52" height="52" rx="5" class="outer"/>
          <rect x="655" y="166" width="40" height="40" rx="5" class="inner"/>
            <text x="657.0" y="200.0" class="label level1 small">SPACE</text>
            <text x="657.0" y="183.0" class="label level3 small">NBSPC</text>
        </g>
      </g>
    </g>
  </svg>
