<svg width="894px" height="307px" viewBox="0 0 894 307" xmlns="http://www.w3.org/2000/svg" xmlns:xlink="http://www.w3.org/1999/xlink">
  <style type="text/css">
    .keycap .outer { fill: #1e1e2e; }
    .keycap .inner { fill: #313244; stroke: #45475a; }
    .label { font: 16px monospace; }
    .label.level1 { fill: #cdd6f4; }
    .label.level2 { fill: #94e2d5; }
    .label.level3 { fill: #f38ba8; }
    .label.level4 { fill: #89b4fa; }
    .label.small { font-size: 10px; }
  </style>
  <g transform="translate(10,10)">
    <rect width="874" height="286.2653718043597" stroke="#cdd6f4" stroke-width="1" fill="#11111b" rx="6"/>
    <g transform='translate(5,5)'>
      <g class="keycap">
        <rect x="163" y="1" width="52" height="52" rx="5" class="outer"/>
        <rect x="169" y="4" width="40" height="40" rx="5" class="inner"/>
        <text x="171.0" y="38.0" class="label level1">У</text>
        <text x="171.0" y="21.0" class="label level2"></text>
        <text x="188.0" y="38.0" class="label level3"></text>
        <text x="188.0" y="21.0" class="label level4"></text>
      </g>
      <g class="keycap">
        <rect x="649" y="1" width="52" height="52" rx="5" class="outer"/>
        <rect x="655" y="4" width="40" height="40" rx="5" class="inner"/>
        <text x="657.0" y="38.0" class="label level1">Ш</text>
        <text x="657.0" y="21.0" class="label level2"></text>
        <text x="674.0" y="38.0" class="label level3">Щ</text>
        <text x="674.0" y="21.0" class="label level4"></text>
      </g>
      <g class="keycap">
        <rect x="109" y="7.75" width="52" height="52" rx="5" class="outer"/>
        <rect x="115" y="10.75" width="40" height="40" rx="5" class="inner"/>
        <text x="117.0" y="44.75" class="label level1">Ц</text>
        <text x="117.0" y="27.75" class="label level2"></text>
        <text x="134.0" y="44.75" class="label level3"></text>
        <text x="134.0" y="27.75" class="label level4"></text>
      </g>
      <g class="keycap">
        <rect x="217" y="7.75" width="52" height="52" rx="5" class="outer"/>
        <rect x="223" y="10.75" width="40" height="40" rx="5" class="inner"/>
        <text x="225.0" y="44.75" class="label level1">К</text>
        <text x="225.0" y="27.75" class="label level2"></text>
        <text x="242.0" y="44.75" class="label level3"></text>
        <text x="242.0" y="27.75" class="label level4"></text>
      </g>
      <g class="keycap">
        <rect x="595" y="7.75" width="52" height="52" rx="5" class="outer"/>
        <rect x="601" y="10.75" width="40" height="40" rx="5" class="inner"/>
        <text x="603.0" y="44.75" class="label level1">Г</text>
        <text x="603.0" y="27.75" class="label level2"></text>
        <text x="620.0" y="44.75" class="label level3"></text>
        <text x="620.0" y="27.75" class="label level4"></text>
      </g>
      <g class="keycap">
        <rect x="703" y="7.75" width="52" height="52" rx="5" class="outer"/>
        <rect x="709" y="10.75" width="40" height="40" rx="5" class="inner"/>
        <text x="711.0" y="44.75" class="label level1">З</text>
        <text x="711.0" y="27.75" class="label level2"></text>
        <text x="728.0" y="44.75" class="label level3"></text>
        <text x="728.0" y="27.75" class="label level4"></text>
      </g>
      <g class="keycap">
       <rect x="271" y="14.5" width="52" height="52" rx="5" class="outer"/>
        <rect x="277" y="17.5" width="40" height="40" rx="5" class="inner"/>
        <text x="279.0" y="51.5" class="label level1">Е</text>
        <text x="279.0" y="34.5" class="label level2"></text>
        <text x="296.0" y="51.5" class="label level3">Ё</text>
        <text x="296.0" y="34.5" class="label level4"></text>
      </g>
      <g class="keycap">
        <rect x="541" y="14.5" width="52" height="52" rx="5" class="outer"/>
        <rect x="547" y="17.5" width="40" height="40" rx="5" class="inner"/>
        <text x="549.0" y="51.5" class="label level1">Н</text>
        <text x="549.0" y="34.5" class="label level2"></text>
        <text x="566.0" y="51.5" class="label level3"></text>
        <text x="566.0" y="34.5" class="label level4"></text>
      </g>
      <g class="keycap">
        <rect x="1" y="21.25" width="52" height="52" rx="5" class="outer"/>
        <rect x="7" y="24.25" width="40" height="40" rx="5" class="inner"/>
        <text x="9.0" y="58.25" class="label level1">(</text>
        <text x="9.0" y="41.25" class="label level2"></text>
        <text x="26.0" y="58.25" class="label level3"></text>
        <text x="26.0" y="41.25" class="label level4"></text>
      </g>
      <g class="keycap">
        <rect x="55" y="21.25" width="52" height="52" rx="5" class="outer"/>
        <rect x="61" y="24.25" width="40" height="40" rx="5" class="inner"/>
        <text x="63.0" y="58.25" class="label level1">Й</text>
        <text x="63.0" y="41.25" class="label level2"></text>
        <text x="80.0" y="58.25" class="label level3"></text>
        <text x="80.0" y="41.25" class="label level4"></text>
      </g>
      <g class="keycap">
        <rect x="757" y="21.25" width="52" height="52" rx="5" class="outer"/>
        <rect x="763" y="24.25" width="40" height="40" rx="5" class="inner"/>
        <text x="765.0" y="58.25" class="label level1">Х</text>
        <text x="765.0" y="41.25" class="label level2"></text>
        <text x="782.0" y="58.25" class="label level3"></text>
        <text x="782.0" y="41.25" class="label level4"></text>
      </g>
      <g class="keycap">
        <rect x="811" y="21.25" width="52" height="52" rx="5" class="outer"/>
        <rect x="817" y="24.25" width="40" height="40" rx="5" class="inner"/>
        <text x="819.0" y="58.25" class="label level1">"</text>
        <text x="819.0" y="41.25" class="label level2">'</text>
        <text x="836.0" y="58.25" class="label level3">«</text>
        <text x="836.0" y="41.25" class="label level4">»</text>
      </g>
      <g class="keycap">
        <rect x="325" y="41.5" width="52" height="52" rx="5" class="outer"/>
        <rect x="331" y="44.5" width="40" height="40" rx="5" class="inner"/>
        <text x="333.0" y="78.5" class="label level1">&lt;</text>
        <text x="333.0" y="61.5" class="label level2"></text>
        <text x="350.0" y="78.5" class="label level3"></text>
        <text x="350.0" y="61.5" class="label level4"></text>
      </g>
      <g class="keycap">
        <rect x="487" y="41.5" width="52" height="52" rx="5" class="outer"/>
        <rect x="493" y="44.5" width="40" height="40" rx="5" class="inner"/>
        <text x="495.0" y="78.5" class="label level1">-</text>
        <text x="495.0" y="61.5" class="label level2">_</text>
        <text x="512.0" y="78.5" class="label level3">—</text>
        <text x="512.0" y="61.5" class="label level4"></text>
      </g>
      <g class="keycap">
        <rect x="163" y="55" width="52" height="52" rx="5" class="outer"/>
        <rect x="169" y="58" width="40" height="40" rx="5" class="inner"/>
        <text x="171.0" y="92.0" class="label level1">В</text>
        <text x="171.0" y="75.0" class="label level2"></text>
        <text x="188.0" y="92.0" class="label level3"></text>
        <text x="188.0" y="75.0" class="label level4"></text>
      </g>
      <g class="keycap">
        <rect x="649" y="55" width="52" height="52" rx="5" class="outer"/>
        <rect x="655" y="58" width="40" height="40" rx="5" class="inner"/>
        <text x="657.0" y="92.0" class="label level1">Л</text>
        <text x="657.0" y="75.0" class="label level2"></text>
        <text x="674.0" y="92.0" class="label level3"></text>
        <text x="674.0" y="75.0" class="label level4"></text>
      </g>
      <g class="keycap">
        <rect x="109" y="61.75" width="52" height="52" rx="5" class="outer"/>
        <rect x="115" y="64.75" width="40" height="40" rx="5" class="inner"/>
        <text x="117.0" y="98.75" class="label level1">Ы</text>
        <text x="117.0" y="81.75" class="label level2"></text>
        <text x="134.0" y="98.75" class="label level3"></text>
        <text x="134.0" y="81.75" class="label level4"></text>
      </g>
      <g class="keycap">
        <rect x="217" y="61.75" width="52" height="52" rx="5" class="outer"/>
        <rect x="223" y="64.75" width="40" height="40" rx="5" class="inner"/>
        <text x="225.0" y="98.75" class="label level1">А</text>
        <text x="225.0" y="81.75" class="label level2"></text>
        <text x="242.0" y="98.75" class="label level3"></text>
        <text x="242.0" y="81.75" class="label level4"></text>
      </g>
      <g class="keycap">
        <rect x="595" y="61.75" width="52" height="52" rx="5" class="outer"/>
        <rect x="601" y="64.75" width="40" height="40" rx="5" class="inner"/>
        <text x="603.0" y="98.75" class="label level1">О</text>
        <text x="603.0" y="81.75" class="label level2"></text>
        <text x="620.0" y="98.75" class="label level3"></text>
        <text x="620.0" y="81.75" class="label level4"></text>
      </g>
      <g class="keycap">
        <rect x="703" y="61.75" width="52" height="52" rx="5" class="outer"/>
        <rect x="709" y="64.75" width="40" height="40" rx="5" class="inner"/>
        <text x="711.0" y="98.75" class="label level1">Д</text>
        <text x="711.0" y="81.75" class="label level2"></text>
        <text x="728.0" y="98.75" class="label level3"></text>
        <text x="728.0" y="81.75" class="label level4"></text>
      </g>
      <g class="keycap">
        <rect x="271" y="68.5" width="52" height="52" rx="5" class="outer"/>
        <rect x="277" y="71.5" width="40" height="40" rx="5" class="inner"/>
        <text x="279.0" y="105.5" class="label level1">П</text>
        <text x="279.0" y="88.5" class="label level2"></text>
        <text x="296.0" y="105.5" class="label level3"></text>
        <text x="296.0" y="88.5" class="label level4"></text>
      </g>
      <g class="keycap">
        <rect x="541" y="68.5" width="52" height="52" rx="5" class="outer"/>
        <rect x="547" y="71.5" width="40" height="40" rx="5" class="inner"/>
        <text x="549.0" y="105.5" class="label level1">Р</text>
        <text x="549.0" y="88.5" class="label level2"></text>
        <text x="566.0" y="105.5" class="label level3"></text>
        <text x="566.0" y="88.5" class="label level4"></text>
      </g>
      <g class="keycap">
        <rect x="1" y="75.25" width="52" height="52" rx="5" class="outer"/>
        <rect x="7" y="78.25" width="40" height="40" rx="5" class="inner"/>
        <text x="9.0" y="112.25" class="label level1">)</text>
        <text x="9.0" y="95.25" class="label level2"></text>
        <text x="26.0" y="112.25" class="label level3"></text>
        <text x="26.0" y="95.25" class="label level4"></text>
      </g>
      <g class="keycap">
        <rect x="55" y="75.25" width="52" height="52" rx="5" class="outer"/>
        <rect x="61" y="78.25" width="40" height="40" rx="5" class="inner"/>
        <text x="63.0" y="112.25" class="label level1">Ф</text>
        <text x="63.0" y="95.25" class="label level2"></text>
        <text x="80.0" y="112.25" class="label level3"></text>
        <text x="80.0" y="95.25" class="label level4"></text>
      </g>
      <g class="keycap">
        <rect x="757" y="75.25" width="52" height="52" rx="5" class="outer"/>
        <rect x="763" y="78.25" width="40" height="40" rx="5" class="inner"/>
        <text x="765.0" y="112.25" class="label level1">Ж</text>
        <text x="765.0" y="95.25" class="label level2"></text>
        <text x="782.0" y="112.25" class="label level3">[</text>
        <text x="782.0" y="95.25" class="label level4">{</text>
      </g>
      <g class="keycap">
        <rect x="811" y="75.25" width="52" height="52" rx="5" class="outer"/>
        <rect x="817" y="78.25" width="40" height="40" rx="5" class="inner"/>
        <text x="819.0" y="112.25" class="label level1">Э</text>
        <text x="819.0" y="95.25" class="label level2"></text>
        <text x="836.0" y="112.25" class="label level3">]</text>
        <text x="836.0" y="95.25" class="label level4">}</text>
      </g>
      <g class="keycap">
        <rect x="325" y="95.5" width="52" height="52" rx="5" class="outer"/>
        <rect x="331" y="98.5" width="40" height="40" rx="5" class="inner"/>
        <text x="333.0" y="132.5" class="label level1">&gt;</text>
        <text x="333.0" y="115.5" class="label level2"></text>
        <text x="350.0" y="132.5" class="label level3"></text>
        <text x="350.0" y="115.5" class="label level4"></text>
      </g>
      <g class="keycap">
        <rect x="487" y="95.5" width="52" height="52" rx="5" class="outer"/>
        <rect x="493" y="98.5" width="40" height="40" rx="5" class="inner"/>
        <text x="495.0" y="132.5" class="label level1">=</text>
        <text x="495.0" y="115.5" class="label level2">+</text>
        <text x="512.0" y="132.5" class="label level3">‐</text>
        <text x="512.0" y="115.5" class="label level4"></text>
      </g>
      <g class="keycap">
        <rect x="163" y="109" width="52" height="52" rx="5" class="outer"/>
        <rect x="169" y="112" width="40" height="40" rx="5" class="inner"/>
        <text x="171.0" y="146.0" class="label level1">С</text>
        <text x="171.0" y="129.0" class="label level2"></text>
        <text x="188.0" y="146.0" class="label level3"></text>
        <text x="188.0" y="129.0" class="label level4"></text>
      </g>
      <g class="keycap">
        <rect x="649" y="109" width="52" height="52" rx="5" class="outer"/>
        <rect x="655" y="112" width="40" height="40" rx="5" class="inner"/>
        <text x="657.0" y="146.0" class="label level1">Б</text>
        <text x="657.0" y="129.0" class="label level2"></text>
        <text x="674.0" y="146.0" class="label level3">&amp;</text>
        <text x="674.0" y="129.0" class="label level4">…</text>
      </g>
      <g class="keycap">
        <rect x="109" y="115.75" width="52" height="52" rx="5" class="outer"/>
        <rect x="115" y="118.75" width="40" height="40" rx="5" class="inner"/>
        <text x="117.0" y="152.75" class="label level1">Ч</text>
        <text x="117.0" y="135.75" class="label level2"></text>
        <text x="134.0" y="152.75" class="label level3"></text>
        <text x="134.0" y="135.75" class="label level4"></text>
      </g>
      <g class="keycap">
        <rect x="217" y="115.75" width="52" height="52" rx="5" class="outer"/>
        <rect x="223" y="118.75" width="40" height="40" rx="5" class="inner"/>
        <text x="225.0" y="152.75" class="label level1">М</text>
        <text x="225.0" y="135.75" class="label level2"></text>
        <text x="242.0" y="152.75" class="label level3"></text>
        <text x="242.0" y="135.75" class="label level4"></text>
      </g>
      <g class="keycap">
        <rect x="595" y="115.75" width="52" height="52" rx="5" class="outer"/>
        <rect x="601" y="118.75" width="40" height="40" rx="5" class="inner"/>
        <text x="603.0" y="152.75" class="label level1">Ь</text>
        <text x="603.0" y="135.75" class="label level2"></text>
        <text x="620.0" y="152.75" class="label level3">Ъ</text>
        <text x="620.0" y="135.75" class="label level4"></text>
      </g>
      <g class="keycap">
        <rect x="703" y="115.75" width="52" height="52" rx="5" class="outer"/>
        <rect x="709" y="118.75" width="40" height="40" rx="5" class="inner"/>
        <text x="711.0" y="152.75" class="label level1">Ю</text>
        <text x="711.0" y="135.75" class="label level2"></text>
        <text x="728.0" y="152.75" class="label level3">~</text>
        <text x="728.0" y="135.75" class="label level4">`</text>
      </g>
      <g class="keycap">
        <rect x="271" y="122.5" width="52" height="52" rx="5" class="outer"/>
        <rect x="277" y="125.5" width="40" height="40" rx="5" class="inner"/>
        <text x="279.0" y="159.5" class="label level1">И</text>
        <text x="279.0" y="142.5" class="label level2"></text>
        <text x="296.0" y="159.5" class="label level3"></text>
        <text x="296.0" y="142.5" class="label level4"></text>
      </g>
      <g class="keycap">
        <rect x="541" y="122.5" width="52" height="52" rx="5" class="outer"/>
        <rect x="547" y="125.5" width="40" height="40" rx="5" class="inner"/>
        <text x="549.0" y="159.5" class="label level1">Т</text>
        <text x="549.0" y="142.5" class="label level2"></text>
        <text x="566.0" y="159.5" class="label level3"></text>
        <text x="566.0" y="142.5" class="label level4"></text>
      </g>
      <g class="keycap">
        <rect x="1" y="129.25" width="52" height="52" rx="5" class="outer"/>
        <rect x="7" y="132.25" width="40" height="40" rx="5" class="inner"/>
        <text x="9.0" y="166.25" class="label level1">/</text>
        <text x="9.0" y="149.25" class="label level2">|</text>
        <text x="26.0" y="166.25" class="label level3">\</text>
        <text x="26.0" y="149.25" class="label level4"></text>
      </g>
      <g class="keycap">
        <rect x="55" y="129.25" width="52" height="52" rx="5" class="outer"/>
        <rect x="61" y="132.25" width="40" height="40" rx="5" class="inner"/>
        <text x="63.0" y="166.25" class="label level1">Я</text>
        <text x="63.0" y="149.25" class="label level2"></text>
        <text x="80.0" y="166.25" class="label level3"></text>
        <text x="80.0" y="149.25" class="label level4"></text>
      </g>
      <g class="keycap">
        <rect x="757" y="129.25" width="52" height="52" rx="5" class="outer"/>
        <rect x="763" y="132.25" width="40" height="40" rx="5" class="inner"/>
        <text x="765.0" y="166.25" class="label level1">BKS</text>
        <text x="765.0" y="149.25" class="label level2"></text>
        <text x="782.0" y="166.25" class="label level3"></text>
        <text x="782.0" y="149.25" class="label level4"></text>
      </g>
      <g class="keycap">
        <rect x="811" y="129.25" width="52" height="52" rx="5" class="outer"/>
        <rect x="817" y="132.25" width="40" height="40" rx="5" class="inner"/>
        <text x="819.0" y="166.25" class="label level1">DEL</text>
        <text x="819.0" y="149.25" class="label level2"></text>
        <text x="836.0" y="166.25" class="label level3"></text>
        <text x="836.0" y="149.25" class="label level4"></text>
      </g>
      <g class="keycap">
        <rect x="190" y="176.5" width="52" height="52" rx="5" class="outer"/>
        <rect x="196" y="179.5" width="40" height="40" rx="5" class="inner"/>
        <text x="198.0" y="213.5" class="label level1">Ralt</text>
        <text x="198.0" y="196.5" class="label level2"></text>
        <text x="215.0" y="213.5" class="label level3"></text>
        <text x="215.0" y="196.5" class="label level4"></text>
      </g>
      <g class="keycap">
        <rect x="622" y="176.5" width="52" height="52" rx="5" class="outer"/>
        <rect x="628" y="179.5" width="40" height="40" rx="5" class="inner"/>
        <text x="630.0" y="213.5" class="label level1">Ralt</text>
        <text x="630.0" y="196.5" class="label level2"></text>
        <text x="647.0" y="213.5" class="label level3"></text>
        <text x="647.0" y="196.5" class="label level4"></text>
      </g>
      <g class="keycap" transform="rotate(15 243 243)">
        <rect x="244" y="176.5" width="52" height="52" rx="5" class="outer"/>
        <rect x="250" y="179.5" width="40" height="40" rx="5" class="inner"/>
        <text x="252.0" y="213.5" class="label level1">.</text>
        <text x="252.0" y="196.5" class="label level2">:</text>
        <text x="269.0" y="213.5" class="label level3"></text>
        <text x="269.0" y="196.5" class="label level4"></text>
      </g>
      <g class="keycap" transform="rotate(30 27 27)">
        <rect x="379" y="1" width="52" height="79" rx="5" class="outer"/>
        <rect x="385" y="4" width="40" height="67" rx="5" class="inner"/>
        <text x="387.0" y="38.0" class="label level1">␣</text>
        <text x="387.0" y="21.0" class="label level2"></text>
        <text x="404.0" y="38.0" class="label level3">␣</text>
        <text x="404.0" y="21.0" class="label level4"></text>
      </g>
      <g class="keycap" transform="rotate(-30 837 27)">
        <rect x="433" y="1" width="52" height="79" rx="5" class="outer"/>
        <rect x="439" y="4" width="40" height="67" rx="5" class="inner"/>
        <text x="441.0" y="38.0" class="label level1">↵</text>
        <text x="441.0" y="21.0" class="label level2"></text>
        <text x="458.0" y="38.0" class="label level3"></text>
        <text x="458.0" y="21.0" class="label level4"></text>
      </g>
     <g class="keycap" transform="rotate(-15 621 243)">
        <rect x="568" y="176.5" width="52" height="52" rx="5" class="outer"/>
        <rect x="574" y="179.5" width="40" height="40" rx="5" class="inner"/>
        <text x="576.0" y="213.5" class="label level1">,</text>
        <text x="576.0" y="196.5" class="label level2">;</text>
        <text x="593.0" y="213.5" class="label level3"></text>
        <text x="593.0" y="196.5" class="label level4"></text>
      </g>
    </g>
  </g>
</svg>
